<svg width="52" height="52" viewBox="0 0 52 52" fill="none" xmlns="http://www.w3.org/2000/svg">
<path d="M16.2463 2.39083C16.9513 2.11435 17.7046 1.98211 18.4616 2.00194H33.5404C34.2837 2.00194 35.0221 2.09055 35.7557 2.39083C36.4892 2.69112 37.0848 3.15385 37.6313 3.69534L48.3065 14.3702C48.848 14.9141 49.3108 15.5098 49.6111 16.2457C49.9138 16.9792 50 17.7176 50 18.4609V33.5391C50 34.3095 49.904 35.0553 49.5988 35.7887C49.2955 36.4827 48.8561 37.1087 48.3065 37.6298L37.6313 48.3047C37.1012 48.8624 36.463 49.3063 35.7557 49.6092C35.0507 49.8856 34.2974 50.0179 33.5404 49.9981H18.4616C17.6912 49.9981 16.9453 49.9021 16.2118 49.5969C15.5178 49.2936 14.8918 48.8542 14.3707 48.3047L3.69541 37.6298C3.13761 37.0998 2.69372 36.4616 2.39085 35.7543C2.11436 35.0493 1.98211 34.2961 2.00194 33.5391V18.4609C2.00194 17.6905 2.09794 16.9447 2.40316 16.2113C2.70642 15.5173 3.14584 14.8913 3.69541 14.3702L14.3707 3.69534C14.9146 3.15385 15.5103 2.69112 16.2463 2.39083ZM27.3671 19.3741C26.6483 18.9384 25.8902 18.4757 25.201 18.2296C24.7415 18.0536 24.2497 17.9781 23.7586 18.008C23.1942 18.0518 22.6542 18.2568 22.203 18.5988C21.2972 19.283 20.9624 20.2528 20.8024 21.0847C20.6523 21.8576 20.5957 22.8347 20.5341 23.9005L20.5267 24.0137C20.4898 24.693 20.4627 25.3748 20.4627 26C20.4627 26.6252 20.4873 27.307 20.5267 27.9863L20.5341 28.0995C20.5957 29.1653 20.6523 30.1424 20.8024 30.9178C20.9624 31.7472 21.2947 32.717 22.2054 33.3988C22.6485 33.7335 23.1703 33.9477 23.7561 33.9895C24.31 34.0313 24.8047 33.9132 25.2035 33.768C25.8877 33.5219 26.6483 33.0616 27.3671 32.6235L27.4852 32.5496C28.4462 31.9725 29.3621 31.3233 30.2248 30.6076L30.3233 30.5264C31.0641 29.9234 31.7977 29.3253 32.3195 28.7173C32.9447 27.9912 33.3853 27.1224 33.3853 26C33.3853 24.8776 32.9422 24.0088 32.3195 23.2827C31.7977 22.6747 31.0641 22.0766 30.3257 21.4736L30.2273 21.3924C29.7633 21.0099 29.2854 20.6446 28.7947 20.2971C28.3673 20.0002 27.9306 19.7171 27.4852 19.4479L27.3671 19.3741Z" fill="white"/>
</svg>
